<?xml version="1.0" standalone="no"?>
<!DOCTYPE svg PUBLIC "-//W3C//DTD SVG 20010904//EN"
 "http://www.w3.org/TR/2001/REC-SVG-20010904/DTD/svg10.dtd">
<svg version="1.0" xmlns="http://www.w3.org/2000/svg"
 width="1280.000000pt" height="778.000000pt" viewBox="0 0 1280.000000 778.000000"
 preserveAspectRatio="xMidYMid meet">
<metadata>
Created by potrace 1.15, written by Peter Selinger 2001-2017
</metadata>
<g transform="translate(0.000000,778.000000) scale(0.100000,-0.100000)"
fill="#000000" stroke="none">
<path d="M9860 7705 c-489 -68 -766 -105 -2205 -301 -302 -41 -647 -88 -765
-104 -118 -16 -350 -48 -515 -70 -165 -22 -397 -54 -515 -70 -118 -16 -350
-48 -515 -70 -165 -22 -397 -54 -515 -70 -118 -16 -350 -48 -515 -70 -306 -41
-558 -76 -950 -129 -121 -17 -305 -42 -410 -56 -104 -14 -289 -39 -410 -56
-121 -16 -350 -47 -510 -69 -159 -22 -390 -53 -513 -70 -541 -74 -671 -91
-737 -100 -38 -5 -173 -23 -300 -41 -126 -17 -286 -39 -355 -48 l-125 -17 -2
-2364 -3 -2365 1117 -805 c614 -443 1122 -810 1128 -817 9 -8 684 138 2751
597 1506 334 3871 859 5255 1166 l2516 558 6 430 c4 237 8 1206 9 2154 l3
1723 -840 405 c-462 223 -993 479 -1181 569 -188 91 -350 164 -360 164 -10 -1
-255 -34 -544 -74z"/>
</g>
</svg>
