<?xml version="1.0" standalone="no"?>
<!DOCTYPE svg PUBLIC "-//W3C//DTD SVG 20010904//EN"
 "http://www.w3.org/TR/2001/REC-SVG-20010904/DTD/svg10.dtd">
<svg version="1.0" xmlns="http://www.w3.org/2000/svg"
 width="1280.000000pt" height="1210.000000pt" viewBox="0 0 1280.000000 1210.000000"
 preserveAspectRatio="xMidYMid meet">
<metadata>
Created by potrace 1.15, written by Peter Selinger 2001-2017
</metadata>
<g transform="translate(0.000000,1210.000000) scale(0.100000,-0.100000)"
fill="#000000" stroke="none">
<path d="M3630 12073 c-156 -51 -160 -53 -160 -83 0 -15 11 -112 25 -216 14
-104 25 -192 25 -196 0 -3 -24 -21 -52 -38 -29 -18 -83 -57 -120 -86 l-67 -54
-191 91 c-105 50 -198 89 -207 87 -19 -3 -162 -195 -163 -216 0 -8 68 -84 150
-170 105 -110 148 -161 144 -172 -7 -16 -70 -200 -82 -239 -7 -24 -18 -27
-208 -61 -110 -20 -208 -39 -217 -43 -15 -6 -17 -24 -17 -141 0 -119 2 -136
18 -144 16 -9 208 -48 352 -72 l65 -11 24 -80 24 -79 -23 -25 c-21 -22 -22
-29 -15 -99 l7 -76 -109 -115 c-59 -64 -109 -122 -111 -130 -3 -13 122 -189
152 -214 12 -10 24 -8 61 8 26 12 51 19 55 16 9 -5 14 -33 39 -220 44 -319 54
-395 50 -399 -2 -1 -54 -32 -114 -69 -151 -90 -298 -196 -434 -312 l-113 -97
-257 123 c-141 67 -381 182 -534 256 -153 73 -288 133 -299 133 -36 0 -166
-147 -278 -315 -29 -44 -82 -119 -116 -166 -76 -104 -86 -125 -70 -161 6 -15
191 -210 411 -435 220 -224 406 -415 413 -424 11 -14 6 -33 -32 -117 -79 -178
-132 -335 -186 -550 -15 -62 -30 -116 -33 -118 -3 -3 -267 -53 -588 -111 -540
-97 -586 -107 -606 -130 -23 -24 -23 -25 -23 -378 0 -353 0 -354 22 -378 20
-21 46 -29 173 -51 83 -15 174 -31 203 -37 l52 -10 -17 -29 -16 -29 153 -161
154 -161 -13 -32 c-23 -58 -71 -207 -71 -222 0 -22 -23 -28 -230 -65 -102 -18
-193 -36 -202 -42 -16 -8 -18 -25 -18 -137 0 -91 4 -132 13 -139 14 -12 107
-33 272 -62 66 -12 128 -23 137 -26 12 -4 25 -30 40 -77 12 -40 34 -102 49
-138 l27 -67 -65 -63 c-35 -35 -105 -108 -155 -162 l-91 -98 49 -70 c26 -38
64 -88 83 -110 35 -41 39 -42 97 -24 17 5 33 -8 91 -77 38 -46 82 -103 98
-128 15 -25 50 -73 76 -106 27 -34 49 -64 49 -67 0 -3 -36 -17 -79 -32 -44
-14 -81 -31 -84 -38 -4 -10 27 -270 47 -398 6 -36 5 -38 -57 -76 -34 -22 -88
-61 -121 -87 l-58 -48 -190 91 c-104 50 -196 91 -203 91 -14 0 -56 -50 -128
-152 l-48 -67 80 -88 c43 -49 113 -121 154 -162 l76 -74 -21 -51 c-12 -28 -33
-91 -48 -141 l-26 -90 -203 -37 c-112 -20 -210 -39 -217 -42 -11 -4 -14 -36
-14 -145 l0 -139 67 -16 c38 -9 133 -28 213 -42 80 -14 147 -27 148 -29 2 -2
21 -56 43 -119 21 -64 43 -125 49 -136 9 -17 -8 -39 -145 -181 -95 -98 -153
-165 -148 -172 37 -65 139 -198 160 -210 9 -6 78 22 207 83 l194 92 86 -66
c47 -36 99 -72 116 -81 38 -20 38 -30 6 -270 -19 -139 -22 -183 -13 -192 18
-17 224 -85 249 -81 16 2 44 47 121 193 l100 190 146 0 146 0 32 -55 c18 -30
65 -117 105 -192 76 -146 83 -152 140 -129 13 5 62 22 110 36 56 18 89 33 93
44 3 9 -6 101 -20 205 -14 104 -25 199 -25 211 0 15 13 28 41 44 22 13 74 50
116 83 l76 60 111 -52 c61 -29 151 -71 200 -94 l88 -41 24 30 c51 62 134 185
134 197 0 7 -66 82 -145 167 -80 85 -145 158 -145 162 0 4 13 43 30 86 16 43
36 103 45 134 l15 56 208 37 c114 21 213 43 221 49 11 9 13 35 8 125 -5 113
-5 114 16 109 80 -20 226 -65 245 -76 13 -7 46 -19 74 -28 92 -27 73 -54 386
540 272 515 282 532 309 531 15 -1 106 -7 201 -14 134 -10 215 -10 357 -1 102
6 197 14 213 17 28 6 29 4 306 -523 153 -290 287 -536 299 -546 23 -20 59 -18
132 10 55 21 127 44 285 93 74 23 160 52 190 65 30 12 67 26 82 29 15 3 35 18
44 31 15 24 15 36 -5 188 -26 200 -26 223 -3 230 10 3 57 80 116 193 l98 189
151 -1 151 -1 98 -184 c54 -101 104 -188 111 -193 15 -10 233 57 255 79 12 10
10 46 -12 216 -14 112 -26 209 -26 215 0 6 35 34 78 62 42 29 95 67 117 86
l40 34 195 -94 c107 -51 200 -90 206 -86 23 13 153 197 154 216 0 11 -11 32
-25 46 l-26 27 63 82 c35 46 88 118 118 161 30 43 92 126 138 185 102 133 103
143 27 228 l-55 62 0 80 c0 44 -4 86 -9 94 -5 7 -52 21 -107 31 l-99 18 -109
113 c-59 63 -128 138 -153 166 l-45 53 141 147 c77 82 141 155 141 164 0 17
-79 132 -132 192 l-33 38 -104 -51 c-57 -28 -106 -49 -108 -46 -6 6 45 114
150 309 l95 179 148 0 149 0 18 -29 c10 -15 56 -101 103 -190 59 -112 91 -163
102 -163 27 0 236 70 249 83 9 9 5 63 -16 227 l-27 215 45 29 c50 32 103 48
229 70 l83 14 137 -65 137 -65 34 38 c18 22 41 50 50 64 8 14 31 45 49 69 18
24 32 49 30 56 -2 7 -69 83 -150 170 l-146 156 27 67 c15 37 36 99 46 137 10
39 19 71 19 72 1 0 91 17 201 37 110 20 208 39 218 42 15 5 17 21 17 144 0 85
-4 141 -10 145 -6 4 -93 22 -193 40 -258 47 -232 36 -251 110 -9 35 -29 96
-44 137 l-29 74 149 157 c81 87 148 162 148 167 0 10 -79 125 -129 187 -14 18
-33 33 -42 33 -9 0 -100 -40 -203 -90 l-187 -89 -62 50 c-34 27 -88 67 -119
87 -48 31 -56 40 -52 62 24 136 52 420 42 420 -2 0 -57 18 -123 40 -66 22
-125 40 -131 40 -6 0 -57 -87 -112 -192 l-101 -193 -152 1 c-196 2 -201 6
-102 108 341 349 433 451 433 479 0 20 -20 57 -63 116 -35 47 -96 133 -135
191 -40 58 -107 150 -150 205 -86 111 -102 119 -173 91 -29 -12 -39 -13 -39
-3 1 34 24 42 226 79 120 21 211 43 216 50 13 22 10 252 -4 269 -9 10 -84 28
-217 52 -112 21 -208 40 -212 43 -5 3 -9 13 -9 22 0 9 -18 71 -40 136 l-41
120 58 60 c32 34 98 102 146 152 48 50 87 99 87 108 0 14 -76 127 -139 206
l-19 24 -174 -83 c-95 -46 -185 -88 -199 -94 -23 -9 -34 -3 -110 55 -47 35
-99 73 -117 83 -35 21 -37 29 -22 120 25 161 39 329 29 341 -12 14 -216 84
-246 84 -13 0 -44 -50 -119 -191 l-101 -191 -150 -2 -151 -1 -102 193 c-63
120 -107 192 -117 192 -23 0 -215 -61 -239 -75 l-21 -13 28 -218 c16 -120 27
-219 25 -222 -2 -2 -44 10 -93 26 -48 17 -115 37 -148 46 -33 9 -85 28 -115
41 -30 13 -74 27 -98 31 -53 8 -74 -8 -108 -85 -22 -48 -26 -53 -49 -47 -20 5
-31 0 -51 -21 -35 -37 -134 -182 -134 -195 0 -5 11 -23 25 -40 31 -37 31 -42
-4 -101 l-28 -48 -94 101 c-52 56 -93 110 -92 119 1 9 22 73 45 142 l43 126
205 38 c113 20 211 41 218 47 13 12 18 254 4 275 -4 7 -97 28 -207 48 -110 21
-208 41 -217 46 -10 5 -18 18 -18 27 0 15 -53 181 -74 233 -5 12 29 53 121
150 71 74 139 147 151 163 l22 29 -47 66 c-68 97 -114 151 -127 151 -6 0 -97
-41 -203 -91 l-192 -92 -45 41 c-24 22 -76 62 -115 88 -39 26 -71 50 -71 54 0
4 9 72 19 151 10 79 22 174 26 211 8 79 15 73 -148 125 -95 30 -112 33 -121
20 -6 -7 -53 -95 -105 -193 l-95 -179 -152 0 -153 0 -87 165 c-97 185 -120
221 -137 219 -7 -1 -46 -13 -87 -26z m124 -230 c106 -197 115 -212 136 -223
12 -6 97 -11 204 -12 152 -1 188 1 208 14 14 9 59 82 107 174 46 88 87 163 92
168 5 6 27 4 56 -5 56 -18 54 1 22 -245 -23 -174 -20 -190 41 -231 41 -28 179
-130 224 -166 37 -30 85 -23 182 23 49 24 113 46 143 51 37 5 62 16 81 34 l27
26 26 -35 c15 -19 27 -40 27 -46 0 -6 -58 -71 -129 -144 -156 -162 -157 -164
-108 -287 19 -46 43 -118 53 -158 27 -106 37 -113 201 -145 76 -15 162 -31
191 -37 l52 -10 0 -58 0 -58 -45 -7 c-25 -3 -109 -18 -187 -32 -171 -33 -187
-43 -213 -149 -10 -38 -33 -108 -52 -154 -47 -116 -44 -130 65 -245 47 -50
102 -108 121 -129 l35 -37 -24 -46 c-14 -25 -28 -48 -33 -50 -4 -3 -78 29
-166 70 -87 42 -170 76 -185 76 -34 0 -62 -14 -101 -51 -16 -15 -73 -56 -125
-91 -54 -36 -101 -76 -108 -91 -11 -22 -11 -44 1 -126 l13 -99 -55 -6 c-144
-15 -132 -18 -168 49 -47 88 -70 105 -148 105 l-63 0 -101 190 c-56 104 -101
192 -101 195 0 2 10 1 23 -4 41 -16 125 -23 182 -16 108 14 146 78 100 170
-33 69 -57 80 -166 79 -106 -1 -130 -14 -165 -87 l-25 -52 7 62 c9 86 -4 112
-83 164 -51 35 -71 56 -93 99 -15 30 -37 66 -49 79 -12 13 -26 43 -31 65 -23
91 -46 113 -126 122 -61 6 -93 -10 -117 -58 -17 -34 -17 -40 -2 -98 9 -34 14
-67 12 -73 -1 -5 -32 -19 -68 -29 -189 -56 -271 -78 -279 -73 -4 3 -18 43 -31
90 -12 46 -30 92 -40 101 -10 9 -47 23 -81 31 -35 8 -70 20 -78 27 -22 19 -57
25 -89 16 -16 -4 -53 -3 -87 4 l-59 12 -3 56 c-3 54 -2 56 25 62 15 3 93 17
173 32 213 38 213 38 250 177 11 43 32 106 46 140 29 68 31 104 11 160 -18 49
-93 134 -126 143 -14 4 -50 33 -79 64 l-53 58 27 41 c28 43 41 50 50 27 8 -21
72 -49 96 -42 13 3 54 -12 107 -38 154 -78 175 -78 265 -2 28 24 84 65 124 90
117 76 116 71 82 335 -11 90 -20 164 -18 166 7 4 74 23 88 24 10 1 40 -44 84
-126z m2594 -1255 c11 -18 50 -89 87 -158 99 -185 76 -172 305 -175 174 -2
193 0 215 17 13 10 63 93 110 184 59 113 91 164 100 160 8 -3 31 -10 53 -15
33 -9 39 -15 36 -34 -2 -12 -13 -98 -25 -190 -25 -208 -25 -211 75 -274 39
-25 99 -70 134 -99 36 -30 77 -56 95 -59 35 -7 90 11 194 63 32 16 78 32 103
35 31 4 52 14 67 31 l22 26 30 -37 c17 -21 31 -41 31 -46 0 -5 -57 -69 -127
-143 -156 -165 -159 -172 -115 -282 17 -42 42 -114 55 -160 13 -46 33 -92 44
-103 14 -14 65 -29 189 -54 93 -19 179 -35 192 -35 20 0 22 -5 22 -60 0 -33
-3 -60 -7 -60 -5 0 -91 -16 -192 -35 -218 -40 -217 -40 -250 -165 -12 -47 -25
-88 -29 -92 -4 -4 -108 -55 -232 -113 -124 -59 -314 -150 -423 -202 l-199 -95
-29 28 -29 28 24 15 c55 34 65 107 22 172 -34 50 -57 59 -159 59 -65 0 -89 -4
-115 -20 -39 -24 -49 -20 -68 25 -9 22 -38 51 -86 84 -59 42 -79 51 -114 51
-45 0 -62 13 -46 33 19 25 20 61 3 115 -10 32 -22 72 -26 90 -7 36 10 197 27
252 7 19 11 61 10 93 l-3 57 38 0 c37 0 57 10 138 67 63 45 78 92 54 176 -18
66 -100 93 -163 52 -27 -18 -27 -18 -22 6 3 13 13 84 22 156 20 158 15 171
-66 198 -50 16 -50 17 -50 59 0 23 -6 89 -14 147 -8 57 -17 132 -20 166 l-7
61 43 15 c57 21 54 21 76 -15z m-2802 -207 c10 -35 9 -40 -8 -44 -10 -3 -18
-2 -18 1 0 4 -4 24 -9 45 -8 31 -6 37 8 37 11 0 20 -13 27 -39z m612 -423 c22
-22 12 -28 -47 -28 -70 0 -92 7 -84 26 7 18 113 20 131 2z m-1178 -295 c0 -15
-10 -28 -32 -39 -32 -17 -32 -17 -60 16 l-27 33 24 29 c14 16 25 35 25 42 0 8
10 26 22 42 l23 28 12 -64 c7 -36 12 -75 13 -87z m3473 28 c3 -14 -7 -27 -40
-50 -48 -34 -63 -38 -63 -17 0 19 66 70 80 61 6 -4 10 -3 9 2 -5 27 7 30 14 4z
m-1396 -98 c78 -37 143 -71 143 -76 0 -5 -27 -62 -61 -128 -47 -92 -65 -119
-77 -115 -28 8 -171 25 -274 32 l-96 7 -7 51 c-3 28 -8 69 -11 91 l-5 40 68
42 c37 23 88 60 113 82 25 22 49 40 54 41 5 0 74 -30 153 -67z m-797 -273 c17
-33 18 -40 5 -40 -17 0 -49 56 -40 70 10 16 13 12 35 -30z m2554 -725 c4 -12
-4 -15 -43 -15 -31 0 -53 5 -61 15 -11 13 -5 15 43 15 40 0 56 -4 61 -15z
m1787 -627 c22 -6 39 -16 39 -22 0 -7 -9 -83 -20 -171 -11 -88 -20 -172 -20
-187 0 -49 22 -77 96 -123 39 -25 94 -65 121 -89 92 -82 121 -85 252 -21 51
25 105 45 121 45 39 0 74 14 99 41 11 12 22 21 24 18 2 -2 16 -21 31 -41 l28
-37 -134 -141 c-81 -85 -136 -151 -141 -169 -6 -23 1 -49 27 -114 19 -45 44
-116 55 -156 23 -83 42 -117 70 -126 11 -3 97 -21 191 -40 95 -18 174 -36 177
-39 3 -3 8 -28 11 -55 5 -59 30 -48 -208 -91 -102 -19 -174 -38 -190 -49 -18
-13 -32 -45 -56 -122 -17 -57 -38 -120 -47 -139 -16 -34 -16 -32 -17 103 0
177 2 174 -165 206 -107 20 -122 25 -145 52 -32 39 -83 47 -149 25 -40 -13
-59 -14 -100 -5 l-49 10 -12 67 c-16 96 -41 145 -107 211 -73 73 -146 104
-248 105 -91 1 -171 -24 -233 -73 l-50 -40 -13 47 c-13 45 -12 46 16 66 79 57
89 71 89 123 0 64 -20 110 -55 128 -36 19 -72 19 -110 -1 -17 -8 -33 -13 -36
-10 -18 17 -112 259 -106 270 5 7 60 67 123 134 l115 120 33 -29 32 -29 158
-2 c209 -3 222 -2 247 22 12 11 59 92 105 180 49 93 90 160 98 160 8 0 32 -5
53 -12z m-3713 -273 c4 -3 -6 -31 -22 -61 l-28 -54 -174 0 -174 0 -25 50 c-14
27 -26 53 -28 57 -1 5 23 11 53 15 66 7 389 2 398 -7z m-1005 -282 c6 -30 3
-33 -61 -75 -36 -23 -97 -67 -134 -95 -38 -29 -73 -53 -78 -53 -6 0 -34 12
-62 26 l-51 26 39 34 c78 69 157 127 242 181 l87 54 6 -33 c4 -18 9 -47 12
-65z m1668 36 c91 -54 209 -142 248 -183 l24 -25 -56 -27 -56 -28 -38 32 c-21
18 -82 62 -137 99 l-98 66 6 36 c3 20 6 46 6 59 0 12 4 22 8 22 5 0 47 -23 93
-51z m2289 -395 c0 -16 -27 -43 -43 -44 -5 0 -7 10 -5 23 2 14 9 21 20 21 10
-1 15 2 12 7 -3 5 0 9 5 9 6 0 11 -7 11 -16z m371 -260 c93 -27 179 -135 179
-223 0 -19 -4 -22 -27 -17 -26 6 -385 73 -445 83 -42 8 -35 37 21 93 75 75
164 96 272 64z m-3557 -34 c-117 -7 -146 -21 -164 -75 -10 -30 -9 -44 4 -79
29 -75 53 -89 160 -94 118 -5 144 6 175 79 26 60 23 100 -11 136 -12 13 -30
23 -41 23 -11 0 -17 3 -14 6 13 13 134 -19 212 -55 142 -67 242 -157 324 -294
72 -119 101 -230 101 -383 0 -125 -22 -218 -78 -334 -40 -82 -59 -108 -141
-190 -109 -108 -193 -158 -314 -190 -286 -73 -535 -5 -737 199 -204 207 -267
483 -174 761 33 96 81 176 157 257 153 163 334 242 552 240 l90 0 -101 -7z
m-1459 -50 l39 -40 -18 -52 c-10 -29 -33 -102 -51 -163 -35 -118 -30 -113
-118 -129 l-38 -7 6 38 c21 123 113 393 134 393 4 0 24 -18 46 -40z m3013 -32
c43 -107 59 -154 82 -242 28 -113 28 -116 -17 -109 -72 11 -77 16 -96 89 -9
38 -34 111 -54 162 l-36 93 38 39 c22 22 42 40 46 40 4 0 20 -33 37 -72z
m-1474 -43 c-5 -11 -22 -15 -69 -15 -47 0 -64 4 -69 15 -4 13 7 15 69 15 62 0
73 -2 69 -15z m4540 -822 l98 -102 -32 -45 c-17 -25 -33 -46 -35 -46 -3 0 -48
21 -100 47 l-95 48 0 135 0 135 33 -35 c19 -19 78 -81 131 -137z m-6151 -105
c27 -14 18 -26 -41 -53 -57 -27 -56 -27 -67 38 l-6 38 48 -7 c26 -3 56 -11 66
-16z m3187 4 c0 -23 -36 -162 -57 -224 -16 -44 -20 -48 -70 -64 -50 -16 -81
-43 -66 -58 3 -3 1 -6 -6 -6 -25 0 -21 32 13 120 20 50 44 123 53 161 16 67
18 69 52 75 20 3 41 7 46 9 24 8 35 4 35 -13z m-3122 -218 l21 -51 -43 -42
c-47 -46 -52 -48 -59 -23 -3 9 -14 47 -25 85 l-21 67 22 -5 c12 -2 36 1 52 9
17 7 31 13 32 12 1 -1 10 -24 21 -52z m5412 9 c0 -21 9 -105 20 -188 11 -82
20 -158 20 -167 0 -11 -16 -21 -52 -32 -29 -8 -53 -14 -54 -13 -1 1 -39 74
-85 162 -88 169 -114 205 -150 205 -49 0 -4 13 138 40 81 15 151 28 156 29 4
1 7 -16 7 -36z m-7646 -8 c74 -14 159 -34 188 -46 30 -12 65 -19 83 -16 28 4
204 -19 213 -28 11 -11 62 -245 62 -286 0 -36 6 -55 25 -77 31 -37 32 -48 3
-28 -29 20 -87 20 -116 0 -46 -32 -100 -191 -88 -257 7 -37 38 -71 73 -79 34
-9 115 10 139 33 12 11 29 49 39 84 9 36 20 65 24 65 19 0 46 -110 47 -197 2
-91 2 -91 -31 -123 l-33 -32 -16 56 c-20 68 -47 88 -125 94 -68 5 -107 -19
-117 -74 -8 -44 19 -153 53 -217 l26 -48 -124 -127 c-68 -70 -196 -200 -283
-290 l-159 -162 -24 35 -24 36 25 30 c14 17 26 37 26 46 0 8 45 62 100 120
123 128 125 136 76 260 -19 50 -43 121 -52 159 -22 85 -44 109 -120 124 -32 7
-67 19 -78 29 -13 12 -39 16 -95 17 -42 0 -93 4 -114 8 l-38 8 3 56 3 56 183
33 c101 18 194 41 208 49 16 11 29 35 40 73 8 31 29 94 45 141 54 150 52 140
34 202 -12 41 -29 70 -64 107 -27 28 -57 51 -67 51 -20 0 -137 123 -127 134
10 10 35 7 177 -19z m536 -597 c0 -5 -7 -34 -16 -64 -10 -35 -21 -54 -31 -54
-12 0 -14 7 -8 38 10 55 33 104 45 97 5 -3 10 -11 10 -17z m2188 -82 c37 -29
99 -75 139 -100 80 -51 75 -38 54 -144 l-6 -33 -75 47 c-41 25 -96 62 -122 82
-45 34 -48 39 -48 82 0 53 -13 70 -52 70 -15 0 -28 3 -28 8 0 5 32 25 68 41 2
0 33 -23 70 -53z m4276 -20 c14 -19 26 -38 26 -43 -1 -4 -52 -62 -115 -128
l-114 -120 -63 62 -62 62 22 46 c19 39 32 51 80 73 31 14 68 25 81 24 29 -2
88 25 95 44 8 22 21 17 50 -20z m-2231 -33 c34 -17 30 -24 -54 -88 l-56 -44
-44 45 c-37 38 -41 47 -28 54 9 5 27 18 40 29 28 23 98 25 142 4z m-233 -205
l-25 -20 -6 23 c-4 13 -7 37 -8 54 l-1 30 33 -33 32 -33 -25 -21z m-4012 -65
c18 -50 19 -60 7 -72 -12 -12 -16 -9 -28 20 -7 19 -17 51 -21 72 -11 60 18 47
42 -20z m3388 -77 c16 -30 25 -58 20 -63 -9 -10 -414 -11 -438 -1 -15 6 -13
13 13 62 l31 56 173 0 173 0 28 -54z m-2405 -823 c35 -37 36 -42 52 -169 23
-177 24 -169 -22 -182 -21 -7 -45 -12 -54 -12 -10 0 -45 57 -96 155 -45 85
-81 158 -81 162 0 9 137 81 155 82 6 1 27 -16 46 -36z m4547 -11 l32 -18 -46
-29 c-60 -38 -78 -74 -71 -138 8 -65 28 -94 76 -108 36 -11 45 -9 95 15 60 30
156 110 156 131 0 8 4 16 9 19 5 4 153 -62 328 -145 237 -113 328 -162 358
-190 l39 -38 -30 -43 c-17 -24 -36 -42 -41 -41 -5 1 -81 36 -169 78 -201 97
-210 98 -299 22 -35 -30 -98 -76 -139 -102 -101 -63 -102 -68 -76 -271 11 -88
22 -172 25 -189 5 -29 3 -31 -50 -46 l-55 -16 -85 161 c-46 89 -95 172 -109
185 -24 23 -30 23 -216 23 -230 0 -206 15 -309 -182 -78 -150 -100 -185 -101
-159 0 9 -18 151 -40 315 -22 165 -40 308 -40 319 0 15 26 36 102 80 56 33
115 65 131 70 16 6 40 23 53 39 l24 27 0 -39 c0 -47 34 -86 81 -96 57 -11 189
-6 224 8 60 25 74 90 35 165 -25 51 -66 71 -141 71 l-51 0 63 49 c35 27 78 52
95 55 17 4 39 13 50 21 25 19 52 18 92 -3z m-4774 -219 c135 -251 139 -258
166 -255 60 6 237 69 243 87 3 6 -2 69 -12 138 l-17 126 70 -51 c98 -70 280
-189 343 -224 60 -33 58 -27 39 -162 -8 -53 -24 -177 -37 -274 -13 -98 -25
-178 -29 -178 -3 0 -18 19 -34 43 -63 91 -109 147 -121 147 -7 0 -99 -41 -203
-91 l-190 -91 -55 45 c-31 25 -83 64 -117 87 -36 24 -60 48 -60 59 0 10 9 85
19 167 26 200 30 240 22 253 -12 18 -253 93 -264 82 -6 -6 -54 -92 -106 -193
l-97 -183 -153 0 -153 0 -61 114 c-58 109 -59 114 -41 128 36 26 63 25 163 -7
55 -18 104 -29 110 -26 6 4 36 54 67 112 52 97 60 107 107 131 97 51 302 143
317 143 10 0 42 -49 84 -127z m4904 118 c10 -6 4 -16 -25 -38 -21 -17 -48 -35
-60 -42 -42 -22 -27 23 20 56 48 36 47 36 65 24z m-329 -145 c10 -12 6 -15
-19 -21 -36 -8 -120 2 -120 14 0 16 15 21 70 21 37 0 62 -5 69 -14z m-5194
-96 c-3 -5 -12 -10 -18 -10 -7 0 -6 4 3 10 19 12 23 12 15 0z m-295 -252 c47
-87 94 -167 106 -178 19 -20 33 -21 211 -23 151 -1 195 2 213 14 12 8 60 86
106 174 47 88 89 164 93 168 4 4 29 2 54 -5 57 -15 56 -8 26 -229 -28 -206
-27 -206 93 -287 51 -34 114 -80 140 -103 64 -56 95 -56 223 5 54 25 108 46
120 46 36 0 85 21 96 41 14 27 23 24 53 -22 l27 -40 -70 -77 c-38 -42 -93 -99
-121 -127 -90 -87 -97 -117 -50 -227 17 -40 39 -104 50 -144 34 -131 27 -127
278 -174 l172 -33 0 -56 0 -56 -162 -29 c-256 -45 -255 -45 -283 -154 -9 -37
-32 -105 -51 -152 -33 -83 -39 -118 -26 -152 4 -9 64 -77 135 -151 70 -75 127
-138 127 -142 0 -3 -12 -23 -27 -43 -15 -20 -28 -39 -30 -41 -1 -2 -82 33
-178 79 -206 97 -214 98 -299 25 -30 -26 -89 -70 -133 -99 -111 -72 -110 -71
-83 -285 12 -97 24 -183 26 -193 4 -12 -7 -20 -48 -32 -29 -8 -56 -12 -60 -8
-3 4 -45 79 -92 167 -48 88 -96 167 -108 176 -18 14 -51 17 -211 17 -179 0
-190 -1 -212 -22 -13 -11 -58 -86 -99 -166 -102 -197 -90 -184 -150 -164 l-49
17 6 51 c3 28 13 115 22 193 21 175 19 179 -88 249 -44 29 -103 73 -133 99
-84 72 -92 72 -300 -25 -170 -80 -178 -82 -191 -64 -31 41 -33 51 -13 69 10 9
22 29 25 44 3 15 26 48 52 72 25 24 72 74 104 112 72 82 74 101 25 220 -19 45
-42 113 -51 149 -10 37 -26 76 -36 87 -18 20 -76 41 -112 41 -10 0 -31 9 -46
21 -19 14 -41 20 -67 19 -72 -4 -101 -2 -142 10 l-42 11 0 53 0 53 188 34
c228 41 230 42 268 174 14 49 36 117 50 151 27 68 29 103 11 154 -17 50 -85
128 -122 140 -28 9 -66 44 -119 107 -19 22 -18 23 8 63 24 37 46 52 46 31 0
-16 50 -42 88 -45 20 -2 78 -22 127 -46 50 -23 102 -46 118 -50 39 -12 81 3
134 49 25 23 84 66 130 96 46 31 89 67 95 81 9 19 8 57 -5 167 -9 78 -20 167
-23 197 l-6 56 38 11 c22 6 46 10 54 9 8 -1 52 -70 100 -158z m1666 -535 c-3
-27 -18 -150 -33 -275 -26 -221 -27 -227 -8 -247 24 -28 17 -27 -122 4 -13 3
-23 13 -23 21 0 9 -19 72 -41 140 l-42 125 134 138 c74 77 136 139 137 140 2
1 1 -20 -2 -46z"/>
<path d="M4030 11239 c-30 -3 -63 -10 -73 -14 -22 -9 -47 -56 -47 -90 0 -36
35 -102 66 -121 33 -22 159 -31 208 -14 74 24 114 137 70 196 -30 40 -118 57
-224 43z m117 -105 c13 -4 20 -11 16 -20 -7 -20 -129 -20 -136 0 -9 22 67 34
120 20z"/>
<path d="M3745 11152 c-62 -29 -145 -100 -161 -137 -18 -45 -8 -90 28 -120 35
-29 93 -47 127 -38 30 8 139 86 159 115 23 32 10 134 -20 165 -33 32 -83 38
-133 15z m63 -126 c-55 -43 -100 -66 -114 -58 -14 8 -6 17 42 51 50 36 59 39
67 25 5 -8 7 -17 5 -18z"/>
<path d="M4335 11156 c-37 -17 -54 -44 -61 -99 -8 -62 8 -91 81 -144 83 -60
103 -67 153 -53 61 16 102 59 102 107 -1 21 -6 48 -13 61 -25 44 -174 142
-217 141 -8 0 -28 -6 -45 -13z m143 -156 c22 -18 23 -40 1 -40 -20 0 -98 66
-99 83 0 17 2 17 38 -3 20 -12 47 -30 60 -40z"/>
<path d="M4005 10894 c-76 -18 -130 -51 -184 -109 -135 -146 -133 -358 5 -505
195 -208 540 -128 619 145 25 83 16 197 -20 270 -51 104 -147 179 -263 204
-65 14 -81 13 -157 -5z m217 -131 c157 -86 184 -292 55 -418 -59 -57 -105 -75
-193 -75 -72 0 -127 24 -179 75 -53 53 -75 107 -75 185 0 97 35 163 123 230
60 45 189 47 269 3z"/>
<path d="M3494 10882 c-37 -24 -62 -73 -85 -168 -20 -83 -16 -114 18 -146 34
-31 129 -32 170 -2 33 25 74 135 76 202 0 38 -5 49 -39 83 -49 49 -95 59 -140
31z m59 -174 c-12 -42 -21 -58 -34 -58 -14 0 -16 6 -10 33 5 17 14 49 21 70
11 30 17 35 27 25 9 -10 9 -25 -4 -70z"/>
<path d="M4595 10890 c-30 -12 -74 -63 -84 -96 -12 -41 38 -190 73 -221 36
-30 109 -40 152 -20 64 31 65 122 3 267 -28 66 -86 94 -144 70z m82 -212 c4
-21 2 -28 -9 -28 -20 0 -59 115 -44 130 11 11 42 -48 53 -102z"/>
<path d="M4624 10519 c-45 -13 -68 -45 -98 -135 -30 -91 -27 -116 21 -166 50
-52 129 -61 167 -19 19 21 51 108 67 181 24 114 -42 173 -157 139z m51 -131
c-4 -18 -14 -50 -22 -71 -12 -29 -18 -35 -28 -27 -11 9 -9 22 8 70 24 65 54
85 42 28z"/>
<path d="M4434 10210 c-42 -17 -146 -103 -156 -129 -21 -57 12 -150 61 -171
45 -18 90 -5 168 49 80 57 103 86 103 136 0 50 -23 79 -80 104 -53 23 -64 24
-96 11z m54 -108 c13 -9 -17 -41 -68 -75 -57 -39 -55 6 3 50 48 36 47 36 65
25z"/>
<path d="M6633 9880 c-72 -23 -93 -99 -48 -176 30 -51 62 -64 161 -64 92 0
117 10 150 59 43 66 33 144 -25 171 -33 16 -195 23 -238 10z m178 -118 c-8
-14 -19 -16 -72 -12 -37 3 -64 10 -67 18 -3 9 16 12 73 12 69 0 75 -2 66 -18z"/>
<path d="M6957 9784 c-28 -28 -44 -95 -33 -140 13 -49 141 -144 195 -144 44 0
111 37 128 70 33 65 4 118 -102 189 -93 62 -145 69 -188 25z m87 -96 c-4 -7
-3 -8 4 -4 12 7 102 -49 102 -63 0 -25 -35 -18 -76 16 -42 35 -57 63 -33 63 5
0 7 -5 3 -12z"/>
<path d="M6638 9536 c-105 -30 -189 -103 -237 -205 -22 -48 -26 -69 -26 -151
0 -82 4 -103 27 -152 34 -74 112 -152 186 -186 50 -24 69 -27 157 -27 82 0
109 4 148 22 95 44 167 125 197 222 57 183 -20 370 -186 452 -53 26 -80 33
-142 35 -44 2 -97 -2 -124 -10z m218 -120 c163 -76 202 -297 74 -424 -56 -57
-105 -77 -190 -77 -89 0 -136 21 -194 85 -51 57 -66 97 -66 179 0 82 33 156
91 203 77 62 194 76 285 34z"/>
<path d="M7208 9510 c-59 -49 -64 -82 -28 -186 33 -98 53 -121 111 -130 51 -9
49 -20 -5 -28 -58 -9 -78 -34 -111 -138 -26 -84 -26 -87 -9 -123 39 -82 138
-115 190 -63 30 30 75 157 77 218 2 57 -23 98 -63 107 -36 7 -40 23 -7 23 31
0 66 39 73 81 8 49 -50 223 -84 249 -39 31 -99 27 -144 -10z m113 -168 c6 -23
10 -44 7 -47 -11 -11 -38 8 -38 26 0 11 -7 36 -15 56 -12 29 -13 38 -3 44 15
9 29 -15 49 -79z m-11 -353 c-18 -62 -23 -70 -36 -58 -12 13 -11 22 7 69 19
50 37 75 47 65 3 -2 -6 -36 -18 -76z"/>
<path d="M7065 8847 c-12 -7 -46 -31 -77 -54 -62 -47 -74 -75 -64 -148 12 -75
70 -113 142 -94 34 10 135 80 167 117 24 26 31 90 15 122 -29 54 -134 87 -183
57z m79 -106 c4 -5 -15 -25 -41 -44 -70 -50 -73 -51 -73 -28 0 12 17 32 43 50
44 32 62 37 71 22z"/>
<path d="M8046 7250 c-55 -10 -92 -39 -101 -82 -9 -37 35 -129 69 -148 15 -8
61 -13 120 -13 107 -1 122 6 157 75 32 63 21 126 -29 152 -36 18 -153 27 -216
16z m138 -106 c8 -3 12 -12 9 -20 -4 -10 -22 -14 -63 -14 -57 0 -78 10 -65 30
7 11 93 14 119 4z"/>
<path d="M8353 7156 c-48 -41 -62 -129 -28 -179 15 -21 119 -95 153 -108 33
-13 96 6 134 40 24 21 31 36 32 69 1 54 -22 84 -111 145 -89 62 -136 70 -180
33z m156 -144 c25 -19 30 -27 20 -33 -20 -13 -22 -12 -72 27 -29 23 -44 41
-40 50 6 16 21 9 92 -44z"/>
<path d="M8612 6891 c-37 -24 -72 -76 -72 -107 0 -35 58 -188 77 -202 28 -20
93 -34 129 -27 43 8 74 47 74 94 0 70 -50 212 -83 239 -29 24 -89 25 -125 3z
m84 -154 c9 -28 19 -58 22 -64 2 -8 -4 -13 -14 -13 -15 0 -23 15 -37 61 -28
95 -2 110 29 16z"/>
<path d="M4311 6663 c-65 -35 -136 -91 -152 -121 -18 -33 -14 -90 8 -114 23
-26 90 -57 124 -58 28 0 156 80 174 109 20 31 24 65 14 111 -19 91 -83 118
-168 73z m64 -111 c0 -19 -85 -74 -103 -67 -14 5 -10 13 23 41 22 18 46 32 53
29 8 -3 10 0 6 6 -4 7 -1 10 7 7 8 -3 14 -10 14 -16z"/>
<path d="M4925 6683 c-53 -13 -94 -103 -76 -169 8 -31 127 -130 168 -140 71
-18 164 43 166 108 1 52 -15 76 -86 129 -87 66 -127 82 -172 72z m128 -169
c24 -20 25 -24 10 -32 -21 -12 -113 53 -113 81 0 17 2 17 38 -4 20 -12 49 -33
65 -45z"/>
<path d="M4567 6409 c-165 -39 -295 -225 -273 -391 28 -207 197 -349 401 -336
171 11 303 132 335 308 9 52 9 75 -5 136 -47 211 -245 333 -458 283z m224
-127 c188 -98 187 -360 -1 -466 -46 -26 -65 -30 -125 -30 -58 0 -79 5 -123 29
-193 105 -185 384 13 476 64 30 169 26 236 -9z"/>
<path d="M5185 6412 c-52 -12 -105 -74 -105 -124 0 -40 52 -176 75 -198 16
-15 41 -23 83 -27 58 -5 62 -4 91 25 36 36 39 64 15 155 -34 132 -86 187 -159
169z m56 -186 c21 -62 21 -70 -3 -61 -17 7 -52 110 -42 126 10 17 22 -1 45
-65z"/>
<path d="M4046 6381 c-32 -33 -76 -162 -76 -222 0 -54 42 -99 93 -99 101 0
129 23 164 134 31 99 26 132 -27 180 -33 30 -48 36 -83 36 -35 0 -49 -6 -71
-29z m79 -154 c-10 -36 -22 -57 -34 -60 -17 -4 -18 -1 -6 42 17 64 34 96 47
83 6 -6 4 -29 -7 -65z"/>
<path d="M4043 6043 c-12 -2 -34 -18 -49 -36 -23 -28 -26 -37 -21 -87 7 -73
43 -168 78 -202 21 -22 37 -28 69 -28 36 0 48 6 81 38 52 53 56 79 29 171 -28
91 -44 119 -73 130 -32 12 -89 19 -114 14z m47 -120 c0 -14 2 -15 9 -5 5 9 14
-5 28 -42 17 -47 18 -57 7 -67 -8 -7 -17 -9 -20 -6 -12 12 -42 137 -33 137 5
0 9 -8 9 -17z"/>
<path d="M5225 6043 c-74 -16 -85 -28 -122 -133 -34 -98 -31 -124 21 -176 37
-38 49 -44 84 -44 59 0 94 33 121 116 51 155 36 221 -54 237 -17 3 -39 3 -50
0z m20 -140 c-12 -64 -34 -108 -47 -95 -9 9 -7 25 7 67 12 35 22 50 27 42 5
-8 8 -7 8 6 0 9 3 17 6 17 3 0 3 -17 -1 -37z"/>
<path d="M4247 5725 c-59 -20 -85 -42 -96 -81 -18 -65 15 -113 126 -185 103
-68 175 -51 201 47 19 72 3 117 -51 150 -23 15 -51 35 -63 45 -32 30 -75 38
-117 24z m132 -182 c1 -13 -2 -23 -6 -23 -11 0 -113 80 -113 89 0 21 26 15 71
-13 33 -22 48 -38 48 -53z"/>
<path d="M5020 5730 c-14 -4 -55 -28 -92 -54 -81 -57 -94 -87 -73 -169 31
-120 130 -118 269 4 62 53 73 94 44 155 -19 40 -103 76 -148 64z m50 -121 c0
-12 -87 -74 -103 -74 -25 0 -10 24 33 58 41 32 70 38 70 16z"/>
<path d="M4530 5551 c-63 -66 -61 -154 4 -188 36 -19 145 -28 210 -19 93 14
128 84 86 171 -30 63 -59 75 -171 75 l-92 0 -37 -39z m208 -88 c3 -10 -16 -13
-72 -13 -64 0 -74 2 -69 15 4 13 19 15 71 13 41 -2 67 -8 70 -15z"/>
<path d="M1520 2409 c-60 -24 -78 -100 -39 -168 29 -53 53 -64 145 -69 100 -5
141 11 173 69 41 72 26 139 -34 165 -40 16 -206 18 -245 3z m189 -105 c14 -13
-24 -25 -74 -22 -62 3 -87 23 -38 31 28 4 104 -2 112 -9z"/>
<path d="M1285 2326 c-79 -40 -153 -110 -161 -153 -9 -50 15 -95 63 -118 64
-32 101 -26 180 29 92 63 108 98 83 187 -21 75 -84 96 -165 55z m65 -104 c0
-24 -83 -84 -104 -76 -9 3 -13 10 -10 15 5 8 105 79 111 79 2 0 3 -8 3 -18z"/>
<path d="M1882 2335 c-37 -16 -62 -64 -62 -120 0 -36 24 -95 38 -95 4 0 30
-17 58 -38 60 -47 92 -56 142 -42 93 24 129 126 68 189 -40 42 -144 108 -181
115 -17 3 -44 -1 -63 -9z m63 -116 c-3 -5 0 -6 8 -4 17 7 100 -52 92 -65 -11
-17 -30 -11 -73 22 -23 18 -42 41 -42 51 0 10 5 15 10 12 6 -4 8 -11 5 -16z"/>
<path d="M1063 2073 c-12 -2 -34 -18 -48 -34 -30 -37 -69 -158 -70 -217 0 -37
5 -48 33 -73 35 -32 70 -36 135 -18 44 12 58 31 87 119 29 87 28 122 -5 166
-25 32 -81 66 -102 63 -4 -1 -18 -4 -30 -6z m38 -183 c-12 -45 -20 -60 -33
-60 -23 0 -22 3 3 78 16 47 24 60 33 52 10 -8 9 -22 -3 -70z"/>
<path d="M1521 2065 c-67 -21 -145 -80 -186 -139 -114 -166 -76 -391 86 -511
184 -136 447 -75 550 127 32 62 45 168 30 240 -16 80 -42 129 -98 189 -69 74
-137 103 -247 106 -59 2 -107 -2 -135 -12z m234 -115 c50 -21 118 -95 136
-146 34 -101 3 -223 -77 -292 -51 -46 -100 -62 -183 -62 -103 0 -198 63 -238
159 -20 46 -20 155 -1 202 59 139 221 201 363 139z"/>
<path d="M2155 2073 c-31 -8 -92 -72 -99 -104 -7 -38 46 -197 74 -221 24 -20
99 -33 135 -24 32 8 61 40 68 76 11 50 -48 228 -85 257 -17 14 -67 22 -93 16z
m74 -235 c1 -11 -5 -15 -19 -11 -11 3 -20 13 -20 22 -1 9 -7 34 -15 56 -11 30
-11 42 -2 53 9 11 16 3 34 -44 12 -33 22 -66 22 -76z"/>
<path d="M1014 1703 c-41 -8 -68 -49 -68 -101 0 -63 40 -177 74 -216 24 -26
35 -31 74 -31 40 0 51 5 86 40 26 26 40 50 42 70 3 49 -50 201 -76 218 -25 17
-98 28 -132 20z m84 -160 c16 -43 18 -60 10 -70 -15 -19 -23 -8 -42 56 -19 66
-20 71 -2 71 7 0 23 -26 34 -57z"/>
<path d="M2174 1700 c-44 -14 -67 -45 -98 -132 -34 -94 -30 -121 25 -174 35
-34 46 -39 85 -39 39 0 50 5 74 32 33 37 73 157 73 221 1 76 -72 118 -159 92z
m49 -122 c-12 -53 -35 -118 -43 -118 -18 0 -17 31 2 84 20 55 52 80 41 34z"/>
<path d="M1228 1390 c-70 -21 -108 -62 -108 -116 0 -49 30 -83 137 -156 113
-78 203 -30 203 107 0 41 -19 65 -92 118 -69 48 -100 59 -140 47z m77 -132
c32 -23 45 -39 45 -56 l0 -23 -32 22 c-60 41 -89 72 -76 81 17 10 11 12 63
-24z"/>
<path d="M1974 1382 c-66 -36 -133 -88 -143 -110 -23 -50 -5 -140 36 -172 41
-32 90 -26 159 19 109 72 141 116 129 178 -7 38 -51 78 -103 93 -47 13 -41 13
-78 -8z m64 -100 c13 -9 -17 -41 -68 -75 -57 -39 -55 6 3 50 48 36 47 36 65
25z"/>
<path d="M1608 1250 c-66 -4 -81 -9 -103 -31 -36 -35 -55 -94 -44 -133 14 -49
40 -66 115 -78 150 -23 245 14 246 98 1 70 -49 137 -107 146 -16 2 -65 1 -107
-2z m104 -123 c8 -15 2 -17 -61 -17 -64 0 -89 9 -78 28 3 4 33 7 67 6 47 0 64
-4 72 -17z"/>
<path d="M10670 7608 c-14 -5 -61 -21 -104 -34 -44 -13 -89 -30 -101 -38 l-22
-14 23 -179 c13 -98 26 -194 29 -214 6 -36 6 -37 -77 -93 -46 -31 -100 -70
-121 -88 l-37 -32 -163 78 c-89 43 -179 85 -201 94 -39 16 -39 16 -63 -13 -52
-64 -133 -185 -133 -199 0 -8 67 -84 150 -169 l149 -154 -29 -74 c-16 -41 -36
-104 -45 -140 l-16 -65 -217 -40 -217 -39 -3 -142 -3 -142 41 -11 c23 -6 120
-26 217 -43 l176 -32 32 -100 c18 -55 40 -117 49 -138 l17 -38 -148 -155 c-81
-85 -149 -162 -151 -170 -6 -23 142 -224 165 -224 8 0 100 41 204 90 l189 91
62 -49 c35 -27 88 -65 119 -85 l55 -35 -8 -79 c-5 -43 -17 -140 -27 -215 -10
-76 -15 -141 -12 -144 10 -10 73 -35 165 -65 65 -20 93 -25 103 -18 7 6 56 93
108 194 l96 182 150 0 150 0 29 -51 c17 -28 62 -113 102 -188 83 -156 75 -152
186 -117 112 35 154 52 159 65 2 7 -8 108 -23 225 -15 118 -23 214 -18 216 22
7 134 85 176 122 44 39 66 52 53 31 -3 -5 0 -7 8 -4 8 3 96 -34 195 -82 100
-47 187 -84 195 -81 19 7 145 176 153 205 5 18 -13 42 -102 138 -60 63 -126
135 -147 159 l-39 44 25 63 c14 35 35 97 48 138 l22 75 204 37 c112 20 210 42
218 48 16 13 20 152 7 240 l-7 45 -214 40 -214 40 -16 65 c-10 36 -30 98 -45
138 l-28 74 39 41 c21 23 87 92 146 154 59 61 107 119 107 128 0 24 -144 225
-161 225 -5 0 -96 -41 -201 -91 -124 -59 -196 -88 -204 -83 -7 5 -48 36 -91
69 -44 33 -92 69 -108 80 l-27 20 21 165 c11 91 22 189 24 219 l2 55 -125 41
c-69 23 -130 40 -135 38 -6 -2 -57 -90 -113 -196 -64 -121 -106 -190 -114
-188 -7 2 -75 5 -151 5 l-138 1 -90 170 c-127 238 -114 222 -159 203z m2 -140
c9 -13 48 -84 88 -158 105 -197 79 -182 313 -183 175 -1 197 0 215 16 11 10
59 93 107 184 95 179 86 171 160 143 31 -12 32 -25 4 -231 -26 -196 -23 -206
77 -266 38 -23 96 -64 128 -93 97 -85 110 -85 264 -14 52 24 109 44 128 44 23
0 44 9 67 30 l34 30 27 -40 c14 -22 26 -42 26 -46 0 -3 -58 -67 -130 -141
-157 -164 -158 -167 -107 -292 19 -47 43 -115 52 -151 30 -116 31 -117 293
-166 l152 -28 0 -56 0 -57 -177 -32 c-97 -18 -186 -36 -197 -41 -34 -13 -51
-40 -75 -125 -12 -44 -36 -115 -53 -157 -44 -112 -42 -117 112 -280 72 -75
130 -139 130 -142 0 -12 -53 -86 -61 -86 -5 0 -79 33 -164 74 -85 41 -167 77
-183 81 -38 8 -79 -9 -122 -50 -19 -19 -78 -62 -129 -97 -77 -51 -96 -69 -103
-95 -6 -22 0 -94 16 -215 14 -101 22 -186 18 -189 -4 -3 -27 -11 -51 -18 -55
-16 -45 -27 -152 176 -59 113 -87 157 -107 166 -34 18 -376 17 -407 0 -11 -6
-60 -87 -109 -180 -49 -92 -90 -170 -92 -172 -2 -2 -25 3 -51 11 -57 19 -56 6
-28 249 23 200 26 191 -99 272 -46 31 -102 71 -123 91 -47 42 -88 59 -123 51
-14 -4 -96 -40 -182 -81 -86 -41 -161 -74 -166 -74 -6 0 -19 15 -31 33 -18 28
-19 33 -6 43 8 6 22 27 30 48 8 20 60 83 115 141 119 126 123 140 71 257 -15
34 -39 101 -52 146 -27 98 -53 126 -125 137 -26 4 -60 16 -75 27 -22 17 -37
20 -81 15 -63 -6 -158 11 -165 30 -3 7 -2 33 1 56 l7 43 175 32 c96 18 187 38
202 46 34 18 45 39 72 139 11 43 32 105 45 138 31 72 33 91 16 151 -15 51
-100 148 -130 148 -9 0 -37 21 -62 48 -75 78 -74 75 -43 121 15 23 29 41 31
41 2 0 14 -11 26 -26 16 -18 37 -27 77 -33 30 -5 100 -30 155 -55 126 -59 139
-58 242 26 43 35 99 76 125 91 60 35 88 71 88 114 0 18 -9 108 -20 200 -12 91
-18 168 -15 172 6 5 68 27 86 30 4 1 13 -9 21 -21z"/>
<path d="M10963 6754 c-33 -8 -73 -60 -73 -97 0 -17 9 -50 20 -73 30 -61 69
-77 182 -72 86 3 91 4 118 35 37 41 51 92 39 138 -16 56 -47 69 -163 71 -56 1
-111 0 -123 -2z m180 -119 c-4 -13 -19 -15 -71 -13 -41 2 -67 8 -70 16 -3 9
16 12 72 12 64 0 74 -2 69 -15z"/>
<path d="M10745 6679 c-53 -16 -165 -106 -182 -146 -31 -76 21 -147 118 -160
35 -5 47 -1 110 43 84 58 99 77 99 124 0 109 -60 166 -145 139z m-4 -166 c-47
-34 -66 -40 -75 -24 -7 11 81 74 94 66 6 -4 10 -3 9 2 -4 20 3 26 10 8 6 -16
-1 -26 -38 -52z"/>
<path d="M11333 6683 c-78 -14 -112 -162 -50 -214 120 -100 172 -117 242 -77
49 29 67 62 61 111 -5 47 -30 75 -116 131 -67 44 -99 56 -137 49z m42 -124
c-3 -5 0 -6 8 -4 7 3 32 -8 55 -25 41 -29 47 -50 16 -50 -24 0 -94 61 -94 82
0 11 5 16 10 13 6 -4 8 -11 5 -16z"/>
<path d="M10493 6408 c-48 -13 -77 -62 -107 -183 -18 -75 -12 -108 27 -141 28
-24 37 -26 91 -21 78 7 99 29 130 134 29 95 24 132 -22 176 -35 34 -77 46
-119 35z m39 -180 c-11 -36 -23 -59 -34 -62 -23 -5 -23 0 4 79 17 54 24 64 34
53 11 -11 10 -23 -4 -70z"/>
<path d="M10956 6403 c-229 -70 -328 -353 -193 -554 77 -116 198 -176 338
-166 121 8 208 59 280 163 88 129 74 328 -33 449 -94 108 -252 152 -392 108z
m208 -105 c63 -19 140 -100 160 -167 20 -68 20 -94 0 -160 -20 -69 -88 -143
-152 -168 -107 -41 -226 -12 -300 72 -45 52 -62 101 -62 181 1 143 111 254
253 254 33 0 78 -6 101 -12z"/>
<path d="M11586 6409 c-40 -11 -84 -56 -96 -97 -7 -29 -4 -50 21 -121 31 -90
51 -115 102 -125 84 -17 128 1 147 60 10 30 9 48 -5 103 -43 159 -86 205 -169
180z m73 -232 c2 -36 -31 -1 -49 54 -14 41 -16 57 -7 67 9 11 16 2 34 -44 12
-33 22 -67 22 -77z"/>
<path d="M10447 6039 c-69 -19 -86 -72 -56 -179 36 -132 69 -170 144 -170 27
0 44 9 74 39 21 21 41 51 44 67 4 25 -16 113 -44 185 -18 46 -101 76 -162 58z
m86 -166 c16 -49 16 -58 4 -71 -13 -12 -17 -8 -30 34 -28 88 -29 103 -9 97 10
-2 24 -26 35 -60z"/>
<path d="M11614 6039 c-56 -13 -76 -39 -109 -140 l-28 -86 20 -39 c37 -72 126
-107 179 -69 42 29 99 200 88 262 -11 61 -70 90 -150 72z m32 -161 c-21 -69
-33 -88 -45 -69 -11 16 23 117 39 114 5 -2 10 2 10 9 0 6 3 9 6 5 3 -3 -1 -29
-10 -59z"/>
<path d="M10647 5725 c-81 -28 -114 -91 -82 -158 17 -37 106 -109 170 -138 88
-39 155 18 155 132 0 42 -18 73 -53 94 -18 10 -48 31 -67 46 -45 35 -76 41
-123 24z m98 -137 c48 -34 49 -36 36 -56 -6 -10 -20 -3 -59 28 -81 63 -61 87
23 28z"/>
<path d="M11360 5695 c-25 -18 -57 -43 -72 -55 -50 -38 -49 -141 2 -192 23
-22 38 -28 73 -28 37 0 56 8 116 51 87 61 114 99 107 152 -5 45 -28 73 -75 93
-57 24 -101 18 -151 -21z m114 -83 c5 -9 -31 -40 -86 -74 -27 -17 -28 -17 -28
5 1 15 15 31 43 49 44 29 62 34 71 20z"/>
<path d="M10958 5574 c-35 -18 -68 -82 -68 -128 0 -70 60 -105 180 -106 84 0
128 10 154 37 46 46 38 123 -19 180 -33 33 -34 33 -126 33 -64 -1 -103 -6
-121 -16z m186 -109 c4 -13 -7 -15 -69 -15 -69 0 -86 6 -68 23 3 4 34 7 69 7
46 0 63 -4 68 -15z"/>
</g>
</svg>
