<?xml version="1.0" encoding="iso-8859-1"?>
<!-- Generator: Adobe Illustrator 18.1.1, SVG Export Plug-In . SVG Version: 6.00 Build 0)  -->
<svg version="1.1" id="Capa_1" xmlns="http://www.w3.org/2000/svg" xmlns:xlink="http://www.w3.org/1999/xlink" x="0px" y="0px"
	 viewBox="0 0 311.963 311.963" style="enable-background:new 0 0 311.963 311.963;" xml:space="preserve">
<g>
	<g>
		<g>
			<path style="fill:#010002;" d="M221.74,163.868v-33.461l-97.784,36.257v-36.257l-64.355,23.861V55.196H21.658V168.35L0,176.394
				v133.393h311.963v-179.38L221.74,163.868z M243.175,178.053h43.98v50.649h-43.98V178.053z M151.538,178.053h43.969v50.649
				h-43.969C151.538,228.702,151.538,178.053,151.538,178.053z M55.549,178.053h43.969v50.649H55.549V178.053z M303.081,300.905
				H8.893v-22.561h294.188C303.081,278.344,303.081,300.905,303.081,300.905z"/>
		</g>
		<g>
			<path style="fill:#010002;" d="M41.424,41.886c1.387-15.115,8.675-16.29,18.808-16.29c1.648,0,3.378,0.054,5.325,0.103
				c13.26,0.354,29.219,0.544,37.241-17.525l1.055-2.393l-8.104-3.606l-1.082,2.41c-4.596,10.312-12.009,12.33-23.29,12.33
				c-1.817,0-3.682-0.054-5.586-0.098C50.649,16.404,34.772,16.785,32.58,41.07l-0.25,2.633l8.855,0.794L41.424,41.886z"/>
		</g>
	</g>
</g>
<g>
</g>
<g>
</g>
<g>
</g>
<g>
</g>
<g>
</g>
<g>
</g>
<g>
</g>
<g>
</g>
<g>
</g>
<g>
</g>
<g>
</g>
<g>
</g>
<g>
</g>
<g>
</g>
<g>
</g>
</svg>
